<svg id="Layer_1" data-name="Layer 1" xmlns="http://www.w3.org/2000/svg" viewBox="0 0 966.93 313.47"><defs><style>.cls-1{fill:#231f20;}</style></defs><path class="cls-1" d="M36.74,148.22q72.3-4.84,144.08-14.95c8-1.12,12.42-11.37,10.47-18.45-2.37-8.65-10.39-11.6-18.45-10.48-45,6.25-90.62,10.83-136.1,13.88-7.81.52-15.38,6.52-15,15,.34,7.67,6.62,15.56,15,15Z" transform="translate(-21.73 -51.72)"/><path class="cls-1" d="M92,142.56l35.83,149.11c1.89,7.88,10.82,12.57,18.45,10.48,8-2.21,12.37-10.55,10.47-18.46L120.92,134.58c-1.9-7.88-10.83-12.57-18.45-10.47-8,2.21-12.38,10.54-10.48,18.45Z" transform="translate(-21.73 -51.72)"/><path class="cls-1" d="M195.72,121.53a762.27,762.27,0,0,0,34.52,144.16l14.47-19,4.15,1.08,5.39,5.39.47,1.4c-2.05-7.84-10.71-12.6-18.45-10.48a15.22,15.22,0,0,0-10.47,18.45c2.16,8.28,10.1,14.9,18.91,14.16,9-.76,17.89-9.06,14.46-19a761.91,761.91,0,0,1-34.52-144.16c-1.12-8-11.38-12.42-18.46-10.48-8.65,2.38-11.59,10.4-10.47,18.46Z" transform="translate(-21.73 -51.72)"/><path class="cls-1" d="M221.22,119.78c-.86,1.65-2.78,1-.32.75-2.28.19.93-.25,1.9-.61q5.13-1.87,10.28-3.71c3-1,5.91-2.15,8.91-3.1a36.6,36.6,0,0,1,5-1.35c-2.09.32,2.95.11,2.85.1,7.85.42,15.35-7.2,15-15-.38-8.48-6.59-14.55-15-15-9.94-.53-19.34,3.47-28.51,6.76-9.61,3.45-21,6.23-26.05,16-3.73,7.19-1.84,16.3,5.39,20.53,6.74,3.94,16.77,1.83,20.52-5.39Z" transform="translate(-21.73 -51.72)"/><path class="cls-1" d="M207.21,172a18.85,18.85,0,0,0,8,21.17c7.63,4.79,15.71,3.27,23.49-.19a246.69,246.69,0,0,1,30.24-11.25,15.28,15.28,0,0,0,10.48-18.45c-2.12-7.72-10.66-12.78-18.45-10.47-6.53,1.93-13,4.09-19.33,6.56-3.51,1.36-7,2.82-10.45,4.31-1.71.73-3.39,1.5-5.1,2.24-5.74,2.49,5-2.43,8.34,4.72l2.05,7.57-.3,1.76c2.38-7.48-2.8-16.7-10.48-18.45A15.33,15.33,0,0,0,207.21,172Z" transform="translate(-21.73 -51.72)"/><path class="cls-1" d="M232.5,242.9l-.85,1.12c-3.55,4.64-2.14,12.51,1.17,16.66a15.17,15.17,0,0,0,15.77,5.38c15-3.83,31.37-6.4,45.09-13.93,7.1-3.89,9.39-13.66,5.38-20.52a15.25,15.25,0,0,0-20.52-5.38c-4.79,2.63-11,4-17.21,5.61l-20.72,5.29,16.94,22,.86-1.13c4.93-6.43,1-16.79-5.38-20.52-7.73-4.52-15.58-1.07-20.53,5.38Z" transform="translate(-21.73 -51.72)"/><path class="cls-1" d="M307,93.69l20.46,133.09,18.46-18.45-1-.33,9,6.89-.6-.92,2.05,7.57.12-1.06c.85-7.82-7.51-15.33-15-15-8.86.4-14.09,6.62-15,15-.89,8.14,5.32,14.45,12.5,16.78,5,1.63,10.94-.21,14.6-3.86,4.11-4.12,4.69-9.13,3.85-14.6L335.91,85.71c-1.23-8-11.29-12.44-18.45-10.48C308.9,77.59,305.75,85.65,307,93.69Z" transform="translate(-21.73 -51.72)"/><path class="cls-1" d="M305.18,92A6.51,6.51,0,0,1,303,98.37a2.93,2.93,0,0,1-2.32,2.47c-1,.29-.73.2.79-.28l1.36-.37c3-.81,6-1.44,9-2.15l18.06-4.31c5.83-1.39,11.65-2.92,17.52-4.12,4.53-.93,8.44-1.1,12.61.36,7.42,2.6,16.74-3,18.46-10.47,1.9-8.39-2.54-15.67-10.48-18.46-17.18-6-36.83,1.55-53.69,5.57-7.74,1.85-16,3.09-23.4,6-10.43,4.09-19.47,15.76-14.6,27.4,3.12,7.47,9.93,12.82,18.45,10.48,7.05-1.94,13.62-10.93,10.48-18.45Z" transform="translate(-21.73 -51.72)"/><path class="cls-1" d="M402.21,86.57c3.56,24.46,6.62,49,9.22,73.79,1.29,12.3,2.89,24.71,3.52,37.07,0,.84.06,1.64.05,2.47l.23-1.47q-3.36,10.19,17.75-2.55c-.67-2-2.25-3.92-3.21-5.84a76.37,76.37,0,0,1-5.33-14.14,130.65,130.65,0,0,1-5.16-31.25c-.34-5.54-.48-11.09-.46-16.64,0-5.74.12-11,1.07-15.63a52.81,52.81,0,0,1,2-7.31c.9-2.49-1.66,2.74.56-1.24.49-.88.93-1.77,1.45-2.63-.18.3,2.56-3.62,1.39-2.16s2-2.11,1.77-1.82c.22-.25,2.13-1.86.36-.5a22,22,0,0,1,3.75-2.26c-2.34,1.14.4,0,1.08-.2.86-.22,3.67-.28.93-.23.95,0,1.87,0,2.83,0-2.62-.11-.48,0,.16.13l1.33.4c-1.42-.67-1.36-.59.21.22.25.23,2.11,1.75.37.29,2,1.68,1,1.14.5.44.17.24,2.18,4,1.21,1.81a42.27,42.27,0,0,1,2.35,8.93c.07.33.39,2.86.13.66.19,1.57.32,3.15.42,4.73q.27,4.36.11,8.73c0,1.32-.15,2.64-.24,4-.34,4.87.57-2.5-.26,2.3a78,78,0,0,1-1.71,7.68c-.42,1.51-.95,3-1.42,4.48-.84,2.7.47-.56-.86,2.19a67.66,67.66,0,0,1-3.77,6.83c.22-.35-2.24,3.83-1.55,2.31.5-.62.27-.38-.68.73q4.32-3.1,10.25-.07L448,171.32c-2,3.94-5.15,1.53-7.3,3.66l-.59-.27,2.26,1.15c3,1.53,5.89,3.12,8.8,4.74q8.33,4.64,16.39,9.74a321.68,321.68,0,0,1,30.15,21.48c6.3,5.09,15.06,6.16,21.21,0,5.26-5.26,6.34-16.09,0-21.21a377.38,377.38,0,0,0-44-30.93c-7.41-4.41-15-9-23-12.3-10.66-4.47-24.21-2.39-29.89,8.8-3.53,6.95-2.14,16.6,5.38,20.52,19.68,10.25,33.32-11.36,39.57-27,5.24-13.09,6.87-28,5.37-42-1.67-15.64-6.4-32.85-22-40.06s-33.95-3-45.55,9.42c-11.39,12.17-15.26,28.42-15.91,44.65a225,225,0,0,0,3.25,47.78c2.55,14.43,7.07,30.7,15.76,42.71,7,9.63,20.87,13.89,30.25,4.72,6.44-6.31,7.15-14.93,6.41-23.41q-5-57.65-13.47-114.93c-1.17-8-11.34-12.43-18.45-10.47-8.61,2.36-11.65,10.4-10.48,18.45Z" transform="translate(-21.73 -51.72)"/><path class="cls-1" d="M538.32,74.07a528.47,528.47,0,0,0,18.9,135.25c3.92,14.25,25,14.3,28.93,0l1.12-4.1c2.07-7.56-2.57-16.65-10.48-18.45s-16.23,2.37-18.45,10.47l-1.12,4.1h28.93A492.19,492.19,0,0,1,568.32,74.07c-.08-7.84-6.85-15.36-15-15s-15.08,6.59-15,15Z" transform="translate(-21.73 -51.72)"/><path class="cls-1" d="M635.88,60.8c-12.19,8-21.63,20.52-24.49,35-3.38,17.12.32,35.46,18,42.48,6.12,2.42,12.7,2.69,19.16,3.54,2.36.31-2.28-.49.17.09.71.16,1.43.29,2.14.46,1.43.36,2.84.8,4.22,1.29-2.07-.73,1.13.57,1.76.91s1.25.73,1.87,1.12c.24.16,2.38,1.8,1.4,1a13.84,13.84,0,0,1,3,4c.82,1.45.11.12,0-.21.25.69.45,1.41.63,2.12a20.08,20.08,0,0,1,.46,2.15c-.22-1.66-.13-.63-.18.41,0,.8-.52,4.2,0,1.91-.31,1.48-.72,2.92-1.16,4.36,0,0-.93,2.28-.36,1s-.54.94-.54,1c-.4.65-.75,1.32-1.15,2-.14.23-1.7,2.44-1,1.57a32.93,32.93,0,0,1-5.72,5.22,54.33,54.33,0,0,1-4.87,2.9c-.72.38-1.45.73-2.18,1.09-2.38,1.17,1.55-.57-.92.44a80.69,80.69,0,0,1-11,3.41c-.79.19-1.61.32-2.39.55,1.14-.33,2.34-.12.45-.15-.84,0-1.75-.56-.38,0,3.3,1.44,5.94-.29,7.28,6.43-1.59-8-11.05-12.51-18.45-10.48-8.29,2.28-12.07,10.48-10.48,18.45,2,10.2,12.36,15.57,22,15.56,7.81,0,16-2.87,23.14-5.81,16.44-6.78,30.19-18.47,35.65-35.89,5.63-17.95-.92-36.09-15.76-47.15a49,49,0,0,0-21-8.73c-3.81-.62-7.66-.94-11.49-1.44,2.89.37-1.19-.27-2.08-.49-.64-.16-1.27-.36-1.91-.52-2.59-.67.67.62-.47-.3-1.64-1.32,2.16,2.23,1.48,2.2a14.32,14.32,0,0,1-.76-3.1c.24,1.61.05.33.09-.53s.28-5.82-.07-3.32a35.88,35.88,0,0,1,1.34-5.71c.22-.7.47-1.4.73-2.09.85-2.25-1.61,2.59.58-1.11.87-1.48,1.69-3,2.67-4.39,1.38-2-1.27,1.37.36-.44.66-.72,1.31-1.45,2-2.13.52-.52,1.06-1,1.61-1.51,3.19-2.92-2,1.22,1.66-1.17,6.76-4.45,9.62-13.26,5.38-20.52-3.93-6.72-13.73-9.85-20.52-5.38Z" transform="translate(-21.73 -51.72)"/><path class="cls-1" d="M769.64,64.08l-.44-.49c-4.75-5.43-12.29-4.91-18.18-2.35-12.65,5.51-9.35,25.28-9.17,36.36.2,11.62.64,23.23.9,34.84.25,11.25.33,22.51-.15,33.75-.25,5.76-.65,11.52-1.25,17.26-.26,2.43-.48,4.37-.81,6.5-.19,1.27-.46,2.53-.61,3.81-.51,4.25-.1.29.83-.44l6.62-3.85-1,.22L758,191.2l-1-.43,5.39,5.39c1.62,2.4.32.11.26-.37-.19-1.59-.26-3.19-.32-4.78a103,103,0,0,1,.13-10.54,178.13,178.13,0,0,1,2.15-18.05q3.28-20.78,7-41.49,3.62-20.24,7.6-40.41c.18-.94,1.32-4.22,1.06-5.21l-9,6.23q-2.3-.47-.66-.12c3.22.83,6.5,1.51,9.74,2.28q10,2.4,19.93,5c7.59,2,16.63-2.48,18.45-10.47,1.78-7.82-2.34-16.37-10.47-18.46-10.45-2.68-21-5.83-31.67-7.58-7.62-1.26-14.94.09-20.36,6-4.62,5-5.44,11.82-6.7,18.25Q742.7,111,737,145.77c-2,12.11-4.18,24.33-4.72,36.62-.53,11.89-1.15,30.5,12.28,35.47,8.23,3,17.07-.53,21.43-8.13,3.48-6.07,3.78-13.77,4.65-20.56a301.75,301.75,0,0,0,2.23-34.53c.17-12.88-.24-25.77-.61-38.65-.18-6.45-.36-12.9-.46-19.35q-.08-4.85-.08-9.67c0-1.29,0-2.58,0-3.87,0-.87.7-6.42-.11-3.78l-3.86,6.61-1.63,1.22L748,84.8l.43.5c5.34,6.1,15.76,5.46,21.22,0,6.05-6.06,5.35-15.1,0-21.22Z" transform="translate(-21.73 -51.72)"/><path class="cls-1" d="M769.64,144.73q18.08,1.91,36.23,2.14c7.85.1,15.36-7,15-15-.37-8.22-6.59-14.89-15-15q-18.17-.24-36.23-2.14c-7.83-.82-15.33,7.49-15,15,.4,8.83,6.61,14.12,15,15Z" transform="translate(-21.73 -51.72)"/><path class="cls-1" d="M746.94,204c8.81,7.47,18.85,9.24,30.13,9.4a200.49,200.49,0,0,0,34.16-2.78c8-1.26,12.45-11.26,10.48-18.45-2.34-8.53-10.42-11.75-18.45-10.48A151.84,151.84,0,0,1,781,183.45a100.76,100.76,0,0,1-10.57-.29c-1.09-.1-1-.08.27.05a19.93,19.93,0,0,1-2.16-.51c-1-.33-.95-.25.17.24q-2.24-1.37-.54-.11c-6.18-5.24-15.15-6.06-21.21,0-5.37,5.37-6.21,15.95,0,21.21Z" transform="translate(-21.73 -51.72)"/><path class="cls-1" d="M879.68,78.32a924.05,924.05,0,0,0-23.19,111.43c-1.57,11.12,1.13,23,13.26,26.75,11.89,3.64,19.75-6.05,26.38-14.08q18.23-22.08,35.38-45,18.82-25.14,36.23-51.31l-25.9-15.14c-12.64,26.22-31.81,50-37.89,79-1.62,7.73-2.63,15.9,0,23.54,3.2,9.35,10.66,15.47,19.83,18.58,7.09,2.41,14.93,3,22.3,4.06q13.77,2,27.57,3.78c7.82,1,15.34-7.61,15-15-.4-9-6.62-13.92-15-15-12.78-1.64-26.43-2.71-39.09-5.93-.32-.08-3.94-1.1-2.34-.64s-2.31-.76,0,.21c-1.63-.68-.68-1.19.16.6l-.33-1.41c.2,1.32.27,1.43.22.33.05-1.25,0-2.49.2-3.74-.37,3,.54-2.13.56-2.21.64-3,1.45-5.87,2.38-8.74,3.31-10.25,8.46-19.66,14.44-30.06,6.13-10.65,12.53-21.14,17.87-32.22,3.52-7.29,2-16.2-5.38-20.52s-16-1.38-20.52,5.38c-17,25.48-35,50.49-53.94,74.26q-7.29,9.17-14.78,18.19c-1.3,1.57-3.18,3.25-4.2,5-2,3.42-7.77-1,7.84,3.53,16,4.67,7-.51,9,4.15-.09-.22.28-2,0-.75-.38,1.56.23-1.49.22-1.45.35-2.22.69-4.45,1-6.67q3.78-23.83,8.75-47.45,5.65-26.93,12.83-53.49c2-7.57-2.54-16.64-10.47-18.45s-16.27,2.37-18.45,10.48Z" transform="translate(-21.73 -51.72)"/><path class="cls-1" d="M627.55,266.15l33.32,37.77c5.21,5.91,10.52,11.77,15.36,18,1.22,1.57,3.52,4.71,5,7a30.56,30.56,0,0,1,2.45,4.17c-.42-1.15-.34-.86.22.86,0-1.43,0-1.2,0,.68.05,7.84,6.86,15.36,15,15s15.05-6.6,15-15C713.85,324.39,709,316,703.1,308c-5.46-7.33-11.32-14.31-17.34-21.17q-18.46-21-37-41.94c-5.36-6.07-15.74-5.47-21.21,0-6,6-5.38,15.12,0,21.22Z" transform="translate(-21.73 -51.72)"/><path class="cls-1" d="M651.6,330q10,2.9,8.44,9.2a23.65,23.65,0,0,1,.76-2.52c.61-1.9,1.32-3.77,2-5.64,1.13-3,2.13-5.51,3-7.46,3.14-7,6.55-13.86,10.36-20.53a202.1,202.1,0,0,1,25-34.9c5.39-6.05,6-15.26,0-21.22-5.48-5.48-15.8-6.07-21.21,0a239.72,239.72,0,0,0-35.35,51.49,227.4,227.4,0,0,0-12.5,29.45c-2.17,6.43-2.81,13.29,0,19.62,3.35,7.55,11,13.1,19.45,12.51,7.81-.54,15.38-6.51,15-15-.34-7.66-6.61-15.58-15-15Z" transform="translate(-21.73 -51.72)"/><path class="cls-1" d="M748.6,257.4a198.49,198.49,0,0,1,6.91,36.12c.57,6.31.85,12.65.85,19q0,4.75-.2,9.5c0,.67-.72,3.86-.25,4.35l.07-1q2.74-6.4,10.88-5.64c-7.38-2.68-16.75,3-18.45,10.47-1.92,8.46,2.57,15.59,10.48,18.46,11.41,4.14,23-4.42,26-15.31,2.4-8.77,1.65-19.4,1.32-28.39a236.34,236.34,0,0,0-8.69-55.48,15,15,0,0,0-28.93,8Z" transform="translate(-21.73 -51.72)"/><path class="cls-1" d="M765.7,257q1.45-2.16,0-.28a24.5,24.5,0,0,1,1.84-2c2-2.26-1.25.36,1.19-1,.62-.34,5.38-2.41,2.51-1.46,1.31-.43,2.63-.74,4-1.12q2.65-.48.08-.07c.92-.08,1.83-.12,2.75-.12s4.11.44,1.46-.05a32.47,32.47,0,0,1,5.56,1.53c-2.51-.95,1.21.67,1.71,1s4.84,3.38,3,1.84a40.33,40.33,0,0,1,3.24,3c.69.71,1.36,1.44,2,2.2q-1.17-1.68.37.48c.84,1.23,1.64,2.47,2.38,3.76,3.31,5.83,5,13.23,5.33,19.58a93.27,93.27,0,0,1-.13,12.17c0,.59-.64,5.49-.21,2.59-.25,1.71-.57,3.42-.94,5.1a72.91,72.91,0,0,1-2.92,9.93c-.38,1-.34.92.13-.19-.4.88-.81,1.76-1.25,2.63q-1.15,2.25-2.5,4.39a24.71,24.71,0,0,1-10.88,9.68,57.72,57.72,0,0,1-10.28,3,91.57,91.57,0,0,1-10.36,1.52c-7.77.88-15.4,6.26-15,15,.33,7.37,6.65,15.94,15,15,17.65-2,35-4.89,48.35-17.69,11.12-10.66,17.48-26.05,19.69-41.08,2.67-18.18,1.5-36.5-6.38-53.32-6.79-14.49-20.74-27.17-36.57-30.71-18.81-4.21-38.66,3-49,19.56-4.29,6.86-1.45,16.52,5.39,20.52,7.19,4.21,16.21,1.5,20.52-5.38Z" transform="translate(-21.73 -51.72)"/></svg>